<?xml version="1.0" encoding="UTF-8"?>
<svg id="Layer_1" data-name="Layer 1" xmlns="http://www.w3.org/2000/svg" viewBox="0 0 64 60">
  <defs>
    <style>
      .cls-1 {
        fill: #1c2327;
      }

      .cls-2 {
        fill: #1e6495;
      }

      .cls-3 {
        fill: #fdd03b;
      }
    </style>
  </defs>
  <path class="cls-1" d="M56.3,20.9c1.7.3,3.4.5,4.8,1.6,6.1,4.7,1.9,14.6-5.9,14-.8,2.4-2.1,4.8-3.5,6.9-3.9,5.6-13.5,14.1-20.2,16.2s-3.1,1-4.1-.3-.3-2.9-.3-4.2c-13.7-.3-24.6-9.9-26.8-22.8C-2.9,12.9,13.7-2.8,33.8.4c11.2,1.8,19.8,9.9,22.5,20.4ZM30.8,55.8c2.8-1,5.7-2.8,8-4.7,9.3-7.4,16.1-15.9,13.9-28.4S32.3-.4,17.6,6.1-.9,39.6,16.2,48.6s7.3,2.5,11.4,2.8,1.9-.2,2.6.2c1.5.8.4,3.9.6,4.1ZM56,32.6c1.9.2,3.8-1.3,4-3.1.3-2.7-.6-4.6-3.6-4.8.4,2.6.1,5.3-.3,7.8Z"/>
  <path class="cls-2" d="M30.8,55.8c-.2-.2.9-3.3-.6-4.1s-1.8-.1-2.6-.2c-4.1-.3-7.8-.9-11.4-2.8C-.9,39.6-.2,14,17.6,6.1s32.3.8,35.1,16.6-4.6,20.9-13.9,28.4-5.2,3.7-8,4.7ZM13.6,19.3c-3.6,3.6-2.9,9.2,1.1,12.3s2.7,1.4,2.9,1.9c.4.9-.5,2-.6,3-1.1,10.6,16.9,13.5,22.1,5s1.3-3,1.1-4.8-1.1-2.3-.7-3.2,2.6-1.6,3.3-2.1c8.1-6.2-.6-18.6-10-13-1.2.7-2.4,2-3.7,2.2-2.2.3-2.8-1-4.4-2.1-3.5-2.2-8-2.2-11,.8Z"/>
  <path class="cls-2" d="M56,32.6c.5-2.6.8-5.2.3-7.8,3,.1,3.9,2.1,3.6,4.8s-2.1,3.3-4,3.1Z"/>
  <path class="cls-3" d="M13.6,19.3c3-3,7.5-3,11-.8s2.2,2.3,4.4,2.1,2.6-1.5,3.7-2.2c9.4-5.6,18.1,6.8,10,13s-3,1.6-3.3,2.1c-.4.9.6,2.2.7,3.2.2,1.8-.1,3.3-1.1,4.8-5.2,8.5-23.2,5.6-22.1-5s1-2.1.6-3-2.2-1.4-2.9-1.9c-3.9-3.1-4.7-8.7-1.1-12.3ZM19.5,23.8c-1.4.3-2.2,2.1-1.8,3.4.5,2.2,3.2,2.9,4.7,1s0-4.9-2.8-4.4ZM35.9,23.8c-2.8.6-2.5,5.8,1,5.5s3.2-6.3-1-5.5ZM25.2,31.1c-.7.2-1.1.9-1.2,1.6,0,1.5,2.2,2.5,3.1,3.3s.9,1,1.3,1.4c.2,0,1.5-1.4,1.8-1.7,1.1-.9,2.8-1.6,2.6-3.3s-1.2-1.4-2.1-1.2-1.7.8-2.1.8c-.9,0-1.8-1.2-3.4-.8Z"/>
  <path class="cls-1" d="M25.2,31.1c1.6-.4,2.6.9,3.4.8s1.5-.7,2.1-.8,2,.3,2.1,1.2c.3,1.7-1.5,2.4-2.6,3.3s-1.6,1.8-1.8,1.7c-.5-.5-.8-1-1.3-1.4-1-.8-3.2-1.9-3.1-3.3s.5-1.4,1.2-1.6Z"/>
  <path class="cls-1" d="M19.5,23.8c2.8-.6,4.4,2.3,2.8,4.4s-4.1,1.2-4.7-1,.4-3.1,1.8-3.4Z"/>
  <path class="cls-1" d="M35.9,23.8c4.2-.8,4.4,5.1,1,5.5s-3.8-4.9-1-5.5Z"/>
</svg>